<?xml version="1.0"?>
<svg width="169" height="44" xmlns="http://www.w3.org/2000/svg" xmlns:svg="http://www.w3.org/2000/svg">
 <g class="layer">
  <title>Layer 1</title>
  <path clip-rule="evenodd" d="m44,22c0,12.15 -9.85,22 -22,22c-12.15,0 -22,-9.85 -22,-22c0,-12.15 9.85,-22 22,-22c12.15,0 22,9.85 22,22zm-28,-4c0,2.76 -2.24,5 -5,5c-2.76,0 -5,-2.24 -5,-5c0,-2.76 2.24,-5 5,-5c2.76,0 5,2.24 5,5zm-1,18c2.76,0 5,-2.24 5,-5c0,-2.76 -2.24,-5 -5,-5c-2.76,0 -5,2.24 -5,5c0,2.76 2.24,5 5,5zm19,-5c0,2.76 -2.24,5 -5,5c-2.76,0 -5,-2.24 -5,-5c0,-2.76 2.24,-5 5,-5c2.76,0 5,2.24 5,5zm-1,-8c2.76,0 5,-2.24 5,-5c0,-2.76 -2.24,-5 -5,-5c-2.76,0 -5,2.24 -5,5c0,2.76 2.24,5 5,5zm-6,-13c0,2.76 -2.24,5 -5,5c-2.76,0 -5,-2.24 -5,-5c0,-2.76 2.24,-5 5,-5c2.76,0 5,2.24 5,5zm-5,14c1.1,0 2,-0.9 2,-2c0,-1.1 -0.9,-2 -2,-2c-1.1,0 -2,0.9 -2,2c0,1.1 0.9,2 2,2z" fill="#E2D703" fill-rule="evenodd" id="svg_2"/>
  <path d="m33.5,38.5c2,-1.33 9.5,-3.5 16,1.5" id="svg_3" stroke="#E2D703" stroke-linecap="round" stroke-linejoin="round" stroke-width="3"/>
  <path d="m507.88,220.07l12.88,0l0,3.92l-8.82,0l0,4.68l7.64,0l0,3.92l-7.64,0l0,8.09l-4.06,0l0,-20.61zm16.15,8.37l3.92,0l0,12.24l-3.92,0l0,-12.24zm-0.09,-4.34c0,-0.57 0.23,-1.05 0.67,-1.42c0.47,-0.38 0.96,-0.56 1.49,-0.56c0.52,0 1,0.18 1.43,0.56c0.44,0.37 0.67,0.85 0.67,1.42c0,0.58 -0.23,1.06 -0.67,1.43c-0.43,0.36 -0.91,0.53 -1.43,0.53c-0.53,0 -1.02,-0.17 -1.49,-0.53c-0.44,-0.37 -0.67,-0.85 -0.67,-1.43zm8.04,-5.51l3.92,0l0,22.09l-3.92,0l0,-22.09zm11.52,9.85l0.3,2.16l-0.05,-0.17c0.48,-0.82 1.09,-1.45 1.82,-1.9c0.73,-0.47 1.6,-0.7 2.63,-0.7c0.67,0 1.26,0.09 1.76,0.28c0.53,0.18 0.96,0.46 1.32,0.84c0.35,0.35 0.6,0.82 0.73,1.4l-0.14,0.03c0.52,-0.77 1.15,-1.39 1.87,-1.85c0.75,-0.47 1.52,-0.7 2.33,-0.7c1.21,0 2.17,0.34 2.88,1.03c0.73,0.68 1.1,1.55 1.12,2.64l0,9.18l-3.89,0l0,-7.56c-0.02,-0.54 -0.1,-0.98 -0.25,-1.32c-0.15,-0.35 -0.5,-0.55 -1.04,-0.58c-0.63,0 -1.17,0.22 -1.62,0.67c-0.43,0.43 -0.76,0.99 -0.98,1.68c-0.21,0.67 -0.31,1.37 -0.31,2.1l0,5.01l-3.92,0l0,-7.56c-0.02,-0.54 -0.12,-0.98 -0.31,-1.32c-0.17,-0.35 -0.52,-0.55 -1.06,-0.58c-0.62,0 -1.14,0.22 -1.57,0.67c-0.41,0.43 -0.73,0.98 -0.95,1.65c-0.21,0.67 -0.31,1.36 -0.31,2.07l0,5.07l-3.92,0l0,-12.24l3.56,0zm20.61,-9.85l3.92,0l0,22.09l-3.92,0l0,-22.09zm13.11,22.43c-1.14,0 -2.17,-0.23 -3.11,-0.68c-0.91,-0.46 -1.64,-1.17 -2.18,-2.12c-0.54,-0.96 -0.81,-2.17 -0.81,-3.64c0,-1.39 0.28,-2.58 0.84,-3.59c0.56,-1.01 1.29,-1.78 2.21,-2.32c0.91,-0.56 1.88,-0.84 2.91,-0.84c1.21,0 2.13,0.2 2.74,0.61c0.64,0.4 1.16,0.83 1.57,1.32l-0.17,0.48l0.37,-1.8l3.64,0l0,12.24l-3.92,0l0,-2.66l0.31,0.84c-0.04,0 -0.15,0.11 -0.34,0.34c-0.19,0.2 -0.47,0.45 -0.84,0.75c-0.35,0.28 -0.8,0.52 -1.34,0.73c-0.53,0.22 -1.15,0.34 -1.88,0.34zm1.12,-3.2c0.47,0 0.89,-0.06 1.26,-0.19c0.37,-0.15 0.7,-0.36 0.98,-0.62c0.28,-0.28 0.52,-0.62 0.73,-1.03l0,-3c-0.15,-0.41 -0.37,-0.76 -0.67,-1.04c-0.3,-0.29 -0.66,-0.52 -1.07,-0.67c-0.41,-0.17 -0.87,-0.25 -1.37,-0.25c-0.56,0 -1.08,0.15 -1.57,0.45c-0.47,0.28 -0.84,0.67 -1.12,1.17c-0.28,0.51 -0.42,1.09 -0.42,1.74c0,0.65 0.15,1.24 0.45,1.76c0.3,0.53 0.69,0.94 1.18,1.24c0.5,0.29 1.04,0.44 1.62,0.44zm14.48,-9.38l0.31,2.19l-0.06,-0.2c0.43,-0.76 1.04,-1.38 1.83,-1.85c0.78,-0.48 1.74,-0.72 2.88,-0.72c1.16,0 2.12,0.34 2.88,1.03c0.79,0.67 1.19,1.55 1.21,2.63l0,9.16l-3.92,0l0,-7.7c-0.02,-0.54 -0.17,-0.97 -0.45,-1.29c-0.26,-0.33 -0.71,-0.5 -1.34,-0.5c-0.6,0 -1.13,0.19 -1.57,0.59c-0.45,0.39 -0.8,0.92 -1.04,1.59c-0.24,0.67 -0.36,1.45 -0.36,2.33l0,4.98l-3.92,0l0,-12.24l3.55,0zm19.09,12.58c-1.49,0 -2.76,-0.28 -3.81,-0.84c-1.02,-0.56 -1.81,-1.34 -2.35,-2.33c-0.54,-0.99 -0.81,-2.13 -0.81,-3.41c0,-1.24 0.32,-2.35 0.95,-3.34c0.64,-0.99 1.49,-1.77 2.55,-2.35c1.06,-0.6 2.25,-0.89 3.56,-0.89c1.75,0 3.19,0.51 4.31,1.54c1.14,1 1.87,2.47 2.21,4.39l-9.52,3.03l-0.87,-2.13l6.89,-2.33l-0.81,0.37c-0.15,-0.49 -0.42,-0.91 -0.81,-1.26c-0.38,-0.38 -0.95,-0.56 -1.71,-0.56c-0.58,0 -1.09,0.14 -1.54,0.42c-0.43,0.26 -0.77,0.64 -1.01,1.15c-0.22,0.48 -0.34,1.06 -0.34,1.73c0,0.77 0.14,1.41 0.42,1.93c0.28,0.51 0.67,0.89 1.15,1.15c0.49,0.26 1.03,0.39 1.63,0.39c0.43,0 0.84,-0.07 1.23,-0.22c0.41,-0.15 0.81,-0.35 1.2,-0.59l1.74,2.91c-0.66,0.38 -1.36,0.68 -2.13,0.9c-0.75,0.22 -1.46,0.34 -2.13,0.34z" fill="white" id="svg_4"/>
  <text fill="#ffffff" font-family="Serif" font-size="24" font-weight="bold" id="svg_5" stroke-width="6" text-anchor="middle" transform="matrix(0.885295 0 0 0.857297 11.3359 3.73268)" x="107" xml:space="preserve" y="29.77">MovieMagix</text>
 </g>
</svg>